<?xml version="1.0" encoding="UTF-8" standalone="no"?>
<!-- Created with Inkscape (http://www.inkscape.org/) -->
<svg xmlns:dc="http://purl.org/dc/elements/1.1/" xmlns:cc="http://creativecommons.org/ns#" xmlns:rdf="http://www.w3.org/1999/02/22-rdf-syntax-ns#" xmlns:svg="http://www.w3.org/2000/svg" xmlns="http://www.w3.org/2000/svg" version="1.0" width="1000" height="999.94635" id="svg2443" xml:space="preserve"><metadata id="metadata2448"><rdf:RDF><cc:Work rdf:about=""><dc:format>image/svg+xml</dc:format><dc:type rdf:resource="http://purl.org/dc/dcmitype/StillImage"/><dc:title/></cc:Work></rdf:RDF></metadata><defs id="defs2446"><clipPath id="clipPath2630"><path d="m 113.39,491.46 h 68.03 v 68.03 h -68.03 v -68.03 z" id="path2632"/></clipPath><radialGradient cx="0" cy="0" r="1" id="radialGradient3162" gradientUnits="userSpaceOnUse" gradientTransform="matrix(42.9428,0,0,-42.9428,155.14,533.419)"><stop id="stop2646" style="stop-color:#486492;stop-opacity:1" offset="0"/><stop id="stop2648" style="stop-color:#132746;stop-opacity:1" offset="1"/></radialGradient></defs><g transform="matrix(14.699397,0,0,-14.699397,-1672.6444,8206.495)" id="g2452"><g transform="translate(0.4,-1.20213)" clip-path="url(#clipPath2630)" id="g2628"><g id="g2634"><g id="g2636"><g id="g2642"><path d="m 145.96,559.44 c -9.15,0.56 -17.4,-3.01 -24.52,-10.63 -9.27,-9.91 -9.1,-16.85 -6.57,-29.28 1.66,-8.15 6.5,-16.02 13.27,-21.59 7.88,-6.47 17.13,-8.13 26.76,-4.81 10.61,3.66 20.76,14.15 24.69,25.5 4.27,12.37 0.99,23.59 -9.02,30.77 -8.61,6.18 -16.89,9.56 -24.61,10.04" id="path2650" style="fill:url(#radialGradient3162)"/></g></g></g><g id="g2652" style="fill-rule:nonzero"><path d="m 142.74,498.04 c 0,-0.29 0.23,-0.39 0.9,-0.39 0.56,0 0.91,0.07 0.91,0.42 0,0.34 -0.35,0.42 -0.87,0.42 -0.6,0 -0.94,-0.07 -0.94,-0.45 z m 1.84,0.45 v -0.01 c 0.16,-0.07 0.37,-0.19 0.37,-0.55 0,-0.58 -0.48,-0.81 -1.33,-0.81 -1.1,0 -1.27,0.39 -1.27,0.77 0,0.26 0.13,0.47 0.35,0.56 v 0.01 h -1.1 v 0.5 h 3.29 v -0.47" id="path2654" style="fill:#ffffff"/><path d="m 143.37,500.66 h -0.13 c -0.31,0 -0.55,-0.1 -0.55,-0.39 0,-0.31 0.31,-0.41 0.63,-0.41 h 0.05 v 0.8 z m 0.34,-0.8 h 0.15 c 0.33,0 0.75,0.04 0.75,0.41 0,0.36 -0.41,0.4 -0.55,0.4 v 0.47 c 0.54,0 0.89,-0.33 0.89,-0.87 0,-0.4 -0.12,-0.91 -1.26,-0.91 -0.65,0 -1.34,0.14 -1.34,0.92 0,0.69 0.41,0.87 1.1,0.87 h 0.26 v -1.29 z m -2.28,0.48 v 0.55 l 0.66,-0.49 v -0.34" id="path2656" style="fill:#ffffff"/><path d="m 144.55,502.46 c 0,0.28 -0.21,0.41 -0.89,0.41 -0.56,0 -0.92,-0.07 -0.92,-0.42 0,-0.34 0.35,-0.42 0.88,-0.42 0.59,0 0.93,0.08 0.93,0.43 z m -2.14,-0.9 v 0.47 h 0.3 v 0.01 c -0.22,0.1 -0.36,0.29 -0.36,0.56 0,0.56 0.48,0.79 1.33,0.79 1.04,0 1.27,-0.42 1.27,-0.76 0,-0.27 -0.13,-0.47 -0.35,-0.56 v -0.01 h 1.1 v -0.5" id="path2658" style="fill:#ffffff"/><path d="m 143.58,504.93 c 0.1,-0.13 0.16,-0.4 0.23,-0.55 0.07,-0.14 0.22,-0.2 0.4,-0.2 0.21,0 0.37,0.1 0.37,0.3 0,0.3 -0.22,0.45 -0.59,0.45 h -0.41 z m 0.79,0.47 c 0.09,0 0.18,0.05 0.18,0.13 0,0.03 -0.01,0.06 -0.02,0.08 h 0.32 c 0.03,-0.06 0.06,-0.15 0.06,-0.24 0,-0.22 -0.08,-0.41 -0.32,-0.42 v -0.01 c 0.24,-0.13 0.36,-0.33 0.36,-0.62 0,-0.39 -0.22,-0.64 -0.69,-0.64 -0.56,0 -0.67,0.24 -0.78,0.57 l -0.11,0.39 c -0.05,0.18 -0.1,0.29 -0.32,0.29 -0.22,0 -0.36,-0.08 -0.36,-0.34 0,-0.33 0.23,-0.38 0.47,-0.38 v -0.47 c -0.52,0 -0.81,0.22 -0.81,0.87 0,0.44 0.17,0.79 0.6,0.79" id="path2660" style="fill:#ffffff"/><path d="m 143.13,506.97 h -0.06 c -0.2,0 -0.38,-0.07 -0.38,-0.32 0,-0.2 0.09,-0.36 0.32,-0.36 0.19,0 0.27,0.09 0.36,0.35 l 0.11,0.32 c 0.13,0.37 0.32,0.54 0.72,0.54 0.52,0 0.75,-0.39 0.75,-0.89 0,-0.63 -0.29,-0.82 -0.77,-0.82 h -0.09 v 0.45 h 0.08 c 0.28,0 0.44,0.1 0.44,0.38 0,0.27 -0.14,0.41 -0.36,0.41 -0.19,0 -0.31,-0.1 -0.37,-0.27 l -0.14,-0.41 c -0.13,-0.37 -0.32,-0.53 -0.71,-0.53 -0.47,0 -0.68,0.34 -0.68,0.85 0,0.63 0.36,0.77 0.67,0.77 h 0.11" id="path2662" style="fill:#ffffff"/><path d="m 143.13,508.93 h -0.06 c -0.2,0 -0.38,-0.07 -0.38,-0.32 0,-0.2 0.09,-0.36 0.32,-0.36 0.19,0 0.27,0.09 0.36,0.35 l 0.11,0.32 c 0.13,0.37 0.32,0.54 0.72,0.54 0.52,0 0.75,-0.39 0.75,-0.89 0,-0.63 -0.29,-0.82 -0.77,-0.82 h -0.09 v 0.45 h 0.08 c 0.28,0 0.44,0.1 0.44,0.38 0,0.27 -0.14,0.41 -0.36,0.41 -0.19,0 -0.31,-0.1 -0.37,-0.27 l -0.14,-0.41 c -0.13,-0.37 -0.32,-0.53 -0.71,-0.53 -0.47,0 -0.68,0.34 -0.68,0.85 0,0.63 0.36,0.77 0.67,0.77 h 0.11" id="path2664" style="fill:#ffffff"/><path d="m 143.37,511.05 h -0.13 c -0.31,0 -0.55,-0.1 -0.55,-0.38 0,-0.32 0.31,-0.42 0.63,-0.42 h 0.05 v 0.8 z m 0.34,-0.8 h 0.15 c 0.33,0 0.75,0.04 0.75,0.42 0,0.35 -0.41,0.39 -0.55,0.39 v 0.47 c 0.54,0 0.89,-0.33 0.89,-0.87 0,-0.4 -0.12,-0.9 -1.26,-0.9 -0.65,0 -1.34,0.13 -1.34,0.91 0,0.69 0.41,0.87 1.1,0.87 h 0.26" id="path2666" style="fill:#ffffff"/><path d="m 142.41,511.95 v 0.5 h 0.39 v 0.01 c -0.28,0.11 -0.45,0.29 -0.45,0.57 0,0.06 0.01,0.09 0.01,0.12 h 0.51 c -0.01,-0.03 -0.03,-0.12 -0.03,-0.2 0,-0.23 0.1,-0.5 0.56,-0.5 h 1.49 v -0.5" id="path2668" style="fill:#ffffff"/><path d="m 141.6,514.41 h 3.29 v 0.27 h -3.29 v -0.27 z" id="path2670" style="fill:#ffffff"/><path d="m 143.45,516.47 c -0.61,-0.01 -0.83,-0.18 -0.83,-0.52 0,-0.34 0.22,-0.51 0.83,-0.52 v 1.04 z m 0.63,0.27 c 0.52,-0.04 0.86,-0.33 0.86,-0.79 0,-0.51 -0.36,-0.82 -1.28,-0.82 -0.84,0 -1.27,0.31 -1.27,0.85 0,0.54 0.37,0.78 1.18,0.78 h 0.11 v -1.33 h 0.11 c 0.7,0 0.92,0.25 0.92,0.52 0,0.29 -0.21,0.47 -0.63,0.51" id="path2672" style="fill:#ffffff"/><path d="m 143.67,517.58 c -0.13,-0.34 -0.33,-0.47 -0.58,-0.47 -0.5,0 -0.7,0.31 -0.7,0.73 0,0.46 0.23,0.67 0.68,0.67 h 0.07 v -0.28 h -0.07 c -0.32,0 -0.45,-0.14 -0.45,-0.4 0,-0.32 0.17,-0.44 0.41,-0.44 0.17,0 0.31,0.05 0.41,0.33 l 0.15,0.4 c 0.13,0.33 0.36,0.45 0.62,0.45 0.42,0 0.73,-0.23 0.73,-0.75 0,-0.5 -0.21,-0.75 -0.76,-0.75 h -0.08 v 0.28 h 0.07 c 0.36,0 0.54,0.15 0.54,0.47 0,0.29 -0.16,0.48 -0.44,0.48 -0.21,0 -0.35,-0.09 -0.45,-0.33" id="path2674" style="fill:#ffffff"/><path d="m 142.78,520.14 v -0.35 h -0.37 v 0.35 h -0.23 c -0.47,0 -0.62,0.22 -0.62,0.63 0,0.1 0.01,0.2 0.02,0.27 h 0.38 v -0.14 c 0,-0.18 0.07,-0.27 0.23,-0.27 h 0.22 v 0.41 h 0.37 v -0.41 h 2.11 v -0.49" id="path2676" style="fill:#ffffff"/><path d="m 142.41,521.26 v 0.5 h 0.39 v 0.01 c -0.28,0.11 -0.45,0.29 -0.45,0.57 0,0.06 0.01,0.09 0.01,0.12 h 0.51 c -0.01,-0.03 -0.03,-0.12 -0.03,-0.2 0,-0.23 0.1,-0.5 0.56,-0.5 h 1.49 v -0.5" id="path2678" style="fill:#ffffff"/><path d="m 144.58,523.54 c 0,0.36 -0.3,0.42 -0.93,0.42 -0.55,0 -0.94,-0.06 -0.94,-0.42 0,-0.36 0.39,-0.43 0.94,-0.43 0.63,0 0.93,0.07 0.93,0.43 z m -2.23,0 c 0,0.72 0.53,0.92 1.3,0.92 0.77,0 1.3,-0.23 1.3,-0.92 0,-0.69 -0.53,-0.92 -1.3,-0.92 -0.77,0 -1.3,0.2 -1.3,0.92" id="path2680" style="fill:#ffffff"/><path d="m 142.41,524.84 v 0.47 h 0.29 v 0.02 c -0.22,0.12 -0.35,0.36 -0.35,0.63 0,0.38 0.17,0.62 0.67,0.62 h 1.87 v -0.5 h -1.7 c -0.32,0 -0.45,-0.1 -0.45,-0.34 0,-0.21 0.16,-0.4 0.49,-0.4 h 1.66 v -0.5" id="path2682" style="fill:#ffffff"/><path d="m 142.41,526.83 v 0.34 h -0.7 v 0.5 h 0.7 v 0.41 h 0.37 v -0.41 h 1.48 c 0.19,0 0.26,0.06 0.26,0.23 0,0.07 -0.01,0.13 -0.02,0.18 h 0.37 c 0.03,-0.11 0.04,-0.25 0.04,-0.4 0,-0.34 -0.09,-0.51 -0.6,-0.51 h -1.53 v -0.34" id="path2684" style="fill:#ffffff"/><path d="m 142.41,528.36 v 0.49 h 2.48 v -0.49 h -2.48 z m -0.85,0 v 0.49 h 0.5 v -0.49" id="path2686" style="fill:#ffffff"/><path d="m 143.37,530.58 h -0.13 c -0.31,0 -0.55,-0.1 -0.55,-0.38 0,-0.32 0.31,-0.42 0.63,-0.42 h 0.05 v 0.8 z m 0.34,-0.8 h 0.15 c 0.33,0 0.75,0.04 0.75,0.42 0,0.35 -0.41,0.39 -0.55,0.39 v 0.47 c 0.54,0 0.89,-0.33 0.89,-0.87 0,-0.4 -0.12,-0.9 -1.26,-0.9 -0.65,0 -1.34,0.13 -1.34,0.91 0,0.69 0.41,0.88 1.1,0.88 h 0.26 v -1.3 z m -2.28,-0.12 v 0.56 l 0.66,0.27 v -0.34" id="path2688" style="fill:#ffffff"/><path d="m 142.41,531.49 v 0.49 h 0.39 v 0.01 c -0.28,0.11 -0.45,0.3 -0.45,0.58 0,0.05 0.01,0.08 0.01,0.12 h 0.51 c -0.01,-0.04 -0.03,-0.13 -0.03,-0.21 0,-0.23 0.1,-0.5 0.56,-0.5 h 1.49 v -0.49" id="path2690" style="fill:#ffffff"/><path d="m 143.37,534.13 h -0.13 c -0.31,0 -0.55,-0.1 -0.55,-0.38 0,-0.32 0.31,-0.41 0.63,-0.41 h 0.05 v 0.79 z m 0.34,-0.79 h 0.15 c 0.33,0 0.75,0.04 0.75,0.41 0,0.35 -0.41,0.39 -0.55,0.39 v 0.47 c 0.54,0 0.89,-0.33 0.89,-0.87 0,-0.4 -0.12,-0.9 -1.26,-0.9 -0.65,0 -1.34,0.14 -1.34,0.91 0,0.69 0.41,0.88 1.1,0.88 h 0.26" id="path2692" style="fill:#ffffff"/><path d="m 143.13,536.1 h -0.06 c -0.2,0 -0.38,-0.06 -0.38,-0.32 0,-0.2 0.09,-0.36 0.32,-0.36 0.19,0 0.27,0.09 0.36,0.35 l 0.11,0.32 c 0.13,0.37 0.32,0.54 0.72,0.54 0.52,0 0.75,-0.39 0.75,-0.89 0,-0.62 -0.29,-0.81 -0.77,-0.81 h -0.09 v 0.44 h 0.08 c 0.28,0 0.44,0.1 0.44,0.38 0,0.28 -0.14,0.41 -0.36,0.41 -0.19,0 -0.31,-0.1 -0.37,-0.27 l -0.14,-0.41 c -0.13,-0.37 -0.32,-0.53 -0.71,-0.53 -0.47,0 -0.68,0.34 -0.68,0.85 0,0.63 0.36,0.77 0.67,0.77 h 0.11" id="path2694" style="fill:#ffffff"/><path d="m 134.71,527.18 h -2.33 l -0.01,-0.07 c -0.01,-0.45 -0.28,-4.42 -3.84,-4.42 -3.17,0 -4.78,2.84 -4.78,8.45 0,5.61 1.61,8.46 4.78,8.46 3.62,0 3.84,-4.24 3.84,-4.42 l 0.01,-0.07 h 2.33 c 0.22,0 0.43,0.09 0.58,0.24 0.14,0.15 0.21,0.34 0.2,0.54 -0.05,1.1 -0.61,6.59 -6.99,6.59 -5.15,0 -7.88,-3.91 -7.88,-11.32 0,-7.43 2.73,-11.36 7.88,-11.36 6.14,0 6.9,5.02 6.99,6.56 0.02,0.21 -0.06,0.41 -0.2,0.57 -0.15,0.16 -0.36,0.25 -0.58,0.25" id="path2696" style="fill:#ffffff"/><path d="m 168.57,532.49 -2.01,0.88 c -1.94,0.85 -2.62,1.67 -2.62,3.16 0,1.93 1.41,3.23 3.52,3.23 1.24,0 2.26,-0.26 3.51,-1.53 l 0.07,-0.07 1.07,0.98 c 0.62,0.58 0.44,1.1 0.18,1.43 -1.05,1.24 -2.72,1.92 -4.73,1.92 -3.87,0 -6.67,-2.53 -6.67,-6 0,-3.42 2.15,-4.85 4.48,-5.89 l 2.05,-0.91 c 2.06,-0.92 3.04,-1.71 3.04,-3.7 0,-2.7 -2.44,-3.42 -3.89,-3.42 -1.24,0 -2.62,0.27 -4.32,2.19 l -0.07,0.08 -1.12,-0.99 c -0.57,-0.5 -0.58,-0.93 -0.02,-1.66 1.54,-1.97 3.8,-2.39 5.42,-2.39 3.5,0 7.05,2.16 7.05,6.27 0,3.56 -1.97,5.14 -4.94,6.42" id="path2698" style="fill:#66cde2"/><path d="m 150.35,536 c 0,3.5 -2.84,6.46 -6.34,6.46 -1.65,0 -3.15,-0.62 -4.27,-1.66 v 1.21 h -2.11 c -0.64,0 -0.88,-0.42 -0.88,-0.89 v -20.44 c 0,-0.57 0.35,-0.88 0.87,-0.88 h 2.11 v 16.07 c 0,2.11 1.71,3.82 3.82,3.82 2.11,0 3.82,-1.71 3.82,-3.82 V 519.8 h 2.1 c 0.58,0 0.88,0.32 0.88,0.88 V 536" id="path2700" style="fill:#66cde2"/><path d="m 161.25,540.94 c 0.11,0.13 0.17,0.3 0.17,0.49 0,0.35 -0.22,0.65 -0.54,0.76 -0.61,0.2 -1.26,0.31 -1.94,0.31 -1.64,0 -3.14,-0.63 -4.27,-1.66 v 1.21 h -2.11 c -0.64,0 -0.88,-0.42 -0.88,-0.89 v -20.44 c 0,-0.57 0.35,-0.88 0.87,-0.88 h 2.11 v 16.07 c 0,2.11 1.71,3.82 3.82,3.82 0.56,0 1.08,-0.12 1.55,-0.33 l 1.22,1.53" id="path2702" style="fill:#ffffff"/></g></g></g></svg>