<?xml version="1.0" encoding="UTF-8" standalone="no"?>
<!-- Generator: Adobe Illustrator 16.0.0, SVG Export Plug-In . SVG Version: 6.00 Build 0)  -->

<svg
   xmlns:dc="http://purl.org/dc/elements/1.1/"
   xmlns:cc="http://creativecommons.org/ns#"
   xmlns:rdf="http://www.w3.org/1999/02/22-rdf-syntax-ns#"
   xmlns:svg="http://www.w3.org/2000/svg"
   xmlns="http://www.w3.org/2000/svg"
   xmlns:sodipodi="http://sodipodi.sourceforge.net/DTD/sodipodi-0.dtd"
   xmlns:inkscape="http://www.inkscape.org/namespaces/inkscape"
   version="1.1"
   id="socialicious"
   x="0px"
   y="0px"
   width="100px"
   height="100px"
   viewBox="0 0 100 100"
   style="enable-background:new 0 0 100 100;"
   xml:space="preserve"
   inkscape:version="0.48.4 r9939"
   sodipodi:docname="icon_github-sign.svg"><metadata
   id="metadata10"><rdf:RDF><cc:Work
       rdf:about=""><dc:format>image/svg+xml</dc:format><dc:type
         rdf:resource="http://purl.org/dc/dcmitype/StillImage" /><dc:title /></cc:Work></rdf:RDF></metadata><defs
   id="defs8" /><sodipodi:namedview
   pagecolor="#ffffff"
   bordercolor="#666666"
   borderopacity="1"
   objecttolerance="10"
   gridtolerance="10"
   guidetolerance="10"
   inkscape:pageopacity="0"
   inkscape:pageshadow="2"
   inkscape:window-width="1366"
   inkscape:window-height="705"
   id="namedview6"
   showgrid="false"
   inkscape:zoom="2.36"
   inkscape:cx="50"
   inkscape:cy="50"
   inkscape:window-x="-8"
   inkscape:window-y="-8"
   inkscape:window-maximized="1"
   inkscape:current-layer="socialicious" />
<style
   type="text/css"
   id="style3">

	.st0{fill:#464342;}
	.st1{fill:#E04B26;}
	.st2{fill:#E74B24;}
	.st3{fill:#E94C88;}
	.st4{fill:#1AB6EA;}
	.st5{fill:#EA2429;}
	.st6{fill:#EC1E82;}
	.st7{fill:#B9B9BA;}
	.st8{fill:#EE3E53;}
	.st9{fill:#EE4977;}
	.st10{fill:#5496D0;}
	.st11{fill:#BBBBBB;}
	.st12{fill:#BCBCBC;}
	.st13{fill:#F16722;}
	.st14{fill:#5A471C;}
	.st15{fill:url(#SVGID_1_);}
	.st16{fill:url(#SVGID_2_);}
	.st17{fill:#2AA9E0;}
	.st18{fill-rule:evenodd;clip-rule:evenodd;fill:#BBBBBB;}
	.st19{fill-rule:evenodd;clip-rule:evenodd;fill:#BCBCBC;}
	.st20{fill:#C93C27;}
	.st21{fill:#638BB0;}
	.st22{fill:#CA2027;}
	.st23{fill:#30302F;}
	.st24{fill:#34373D;}
	.st25{fill:#00405D;}
	.st26{fill:#007EE5;}
	.st27{fill:#00A8E1;}
	.st28{fill-rule:evenodd;clip-rule:evenodd;fill:#FFFFFF;}
	.st29{fill:#035795;}
	.st30{fill:#3C5A97;}
	.st31{fill:#3F64AE;}
	.st32{fill:#3F729B;}
	.st33{fill:#A42F23;}
	.st34{fill:#75C044;}
	.st35{fill:#A72723;}
	.st36{fill:#DB2726;}
	.st37{fill:#DD3333;}
	.st38{fill:url(#soundcloud_2_);}
	.st39{fill:#442D86;}
	.st40{fill:#44556B;}

</style>
<path
   id="github_1_"
   d="m -51.477966,-25 h -78.400004 c -6,0 -10.8,4.8 -10.8,10.8 v 78.4 c 0,6 4.8,10.8 10.8,10.8 h 78.400004 c 6,0 10.8,-4.8 10.8,-10.8 v -78.4 c 0,-6 -4.8,-10.8 -10.8,-10.8 z m -28.6,82.5 c -1.7,0.3 -2.3,-0.7 -2.3,-1.6 0,-1.1 0,-4.7 0,-9.2 0,-3.1 -1.1,-5.1 -2.3,-6.2 7.4,-0.8 15.2,-3.6 15.2,-16.5 0,-3.6 -1.3,-6.6 -3.4,-9 0.3,-0.8 1.5,-4.2 -0.3,-8.8 0,0 -2.8,-0.9 -9.2,3.4 -2.7,-0.7 -5.5,-1.1 -8.4,-1.1 -2.8,0 -5.7,0.4 -8.3,1.1 -6.400004,-4.3 -9.200004,-3.4 -9.200004,-3.4 -1.8,4.6 -0.7,8 -0.3,8.8 -2.1,2.3 -3.4,5.3 -3.4,9 0,12.8 7.8,15.6 15.200004,16.5 -1,0.8 -1.8,2.3 -2.1,4.5 -1.900004,0.9 -6.700004,2.3 -9.700004,-2.8 0,0 -1.8,-3.2 -5.1,-3.4 0,0 -3.3,0 -0.2,2 0,0 2.2,1 3.7,4.9 0,0 2,6 11.200004,3.9 0,2.8 0,5.4 0,6.2 0,0.9 -0.6,1.9 -2.300004,1.6 -13.2,-4.4 -22.8,-16.9 -22.8,-31.6 0,-18.4 14.9,-33.3 33.300004,-33.3 18.4,0 33.3,14.9 33.3,33.3 0.1,14.8 -9.4,27.2 -22.6,31.7 z m -19.1,-11 c 0,0.3 -0.2,0.5 -0.6,0.6 -0.400004,0.1 -0.700004,-0.1 -0.800004,-0.4 0,-0.3 0.2,-0.5 0.600004,-0.6 0.4,-0.1 0.8,0.1 0.8,0.4 z m -2.500004,0.4 c 0,0.3 -0.3,0.5 -0.7,0.5 -0.4,0 -0.7,-0.2 -0.7,-0.5 0,-0.3 0.3,-0.5 0.7,-0.5 0.4,0 0.7,0.2 0.7,0.5 z m -2.8,-0.2 c -0.1,0.3 -0.5,0.4 -0.8,0.3 -0.4,-0.1 -0.6,-0.4 -0.5,-0.7 0.1,-0.3 0.5,-0.4 0.8,-0.3 0.4,0.1 0.6,0.4 0.5,0.7 z m -2.4,-1.1 c -0.2,0.2 -0.6,0.1 -0.9,-0.1 -0.3,-0.3 -0.4,-0.7 -0.2,-0.9 0.2,-0.2 0.6,-0.1 0.9,0.1 0.3,0.4 0.3,0.7 0.2,0.9 z m -1.8,-1.8 c -0.2,0.1 -0.5,0 -0.7,-0.3 -0.2,-0.3 -0.2,-0.7 0,-0.8 0.2,-0.1 0.5,0 0.7,0.3 0.2,0.3 0.2,0.6 0,0.8 z m -1.4,-1.9 c -0.2,0.1 -0.5,0.1 -0.7,-0.2 -0.2,-0.2 -0.3,-0.5 -0.1,-0.7 0.2,-0.1 0.5,-0.1 0.7,0.2 0.3,0.2 0.3,0.5 0.1,0.7 z m -1.3,-1.5 c -0.1,0.2 -0.3,0.2 -0.6,0.1 -0.2,-0.1 -0.4,-0.3 -0.3,-0.5 0.1,-0.2 0.3,-0.2 0.6,-0.1 0.2,0.1 0.4,0.3 0.3,0.5 z"
   inkscape:connector-curvature="0"
   style="fill:#333333" />
</svg>