<?xml version="1.0" encoding="UTF-8" standalone="no"?>
<!-- Generator: Adobe Illustrator 16.0.0, SVG Export Plug-In . SVG Version: 6.00 Build 0)  -->

<svg
   xmlns:dc="http://purl.org/dc/elements/1.1/"
   xmlns:cc="http://creativecommons.org/ns#"
   xmlns:rdf="http://www.w3.org/1999/02/22-rdf-syntax-ns#"
   xmlns:svg="http://www.w3.org/2000/svg"
   xmlns="http://www.w3.org/2000/svg"
   xmlns:sodipodi="http://sodipodi.sourceforge.net/DTD/sodipodi-0.dtd"
   xmlns:inkscape="http://www.inkscape.org/namespaces/inkscape"
   version="1.1"
   id="socialicious"
   x="0px"
   y="0px"
   width="100px"
   height="100px"
   viewBox="0 0 100 100"
   style="enable-background:new 0 0 100 100;"
   xml:space="preserve"
   inkscape:version="0.48.4 r9939"
   sodipodi:docname="C:\Users\Mourjo\Desktop\shalinguyen-socialicious-v1.3-0-g78bb1be\shalinguyen-socialicious-78bb1be\svg\icon_twitter-sign.svg"><metadata
   id="metadata10"><rdf:RDF><cc:Work
       rdf:about=""><dc:format>image/svg+xml</dc:format><dc:type
         rdf:resource="http://purl.org/dc/dcmitype/StillImage" /></cc:Work></rdf:RDF></metadata><defs
   id="defs8" /><sodipodi:namedview
   pagecolor="#ffffff"
   bordercolor="#666666"
   borderopacity="1"
   objecttolerance="10"
   gridtolerance="10"
   guidetolerance="10"
   inkscape:pageopacity="0"
   inkscape:pageshadow="2"
   inkscape:window-width="640"
   inkscape:window-height="480"
   id="namedview6"
   showgrid="false" />
<style
   type="text/css"
   id="style3">

	.st0{fill:#464342;}
	.st1{fill:#E04B26;}
	.st2{fill:#E74B24;}
	.st3{fill:#E94C88;}
	.st4{fill:#1AB6EA;}
	.st5{fill:#EA2429;}
	.st6{fill:#EC1E82;}
	.st7{fill:#B9B9BA;}
	.st8{fill:#EE3E53;}
	.st9{fill:#EE4977;}
	.st10{fill:#5496D0;}
	.st11{fill:#BBBBBB;}
	.st12{fill:#BCBCBC;}
	.st13{fill:#F16722;}
	.st14{fill:#5A471C;}
	.st15{fill:url(#SVGID_1_);}
	.st16{fill:url(#SVGID_2_);}
	.st17{fill:#2AA9E0;}
	.st18{fill-rule:evenodd;clip-rule:evenodd;fill:#BBBBBB;}
	.st19{fill-rule:evenodd;clip-rule:evenodd;fill:#BCBCBC;}
	.st20{fill:#C93C27;}
	.st21{fill:#638BB0;}
	.st22{fill:#CA2027;}
	.st23{fill:#30302F;}
	.st24{fill:#34373D;}
	.st25{fill:#00405D;}
	.st26{fill:#007EE5;}
	.st27{fill:#00A8E1;}
	.st28{fill-rule:evenodd;clip-rule:evenodd;fill:#FFFFFF;}
	.st29{fill:#035795;}
	.st30{fill:#3C5A97;}
	.st31{fill:#3F64AE;}
	.st32{fill:#3F729B;}
	.st33{fill:#A42F23;}
	.st34{fill:#75C044;}
	.st35{fill:#A72723;}
	.st36{fill:#DB2726;}
	.st37{fill:#DD3333;}
	.st38{fill:url(#soundcloud_2_);}
	.st39{fill:#442D86;}
	.st40{fill:#44556B;}

</style>
<path
   id="twitter_1_"
   class="st17"
   d="M89.2,0H10.8C4.8,0,0,4.8,0,10.8v78.4c0,6,4.8,10.8,10.8,10.8h78.4c6,0,10.8-4.8,10.8-10.8  V10.8C100,4.8,95.2,0,89.2,0z M80.5,36.3c0,0.6,0,1.3,0,1.9c0,19.4-14.7,41.7-41.7,41.7c-8.3,0-16-2.4-22.5-6.6  c1.1,0.1,2.3,0.2,3.5,0.2c6.9,0,13.2-2.3,18.2-6.3c-6.4-0.1-11.8-4.4-13.7-10.2c0.9,0.2,1.8,0.3,2.8,0.3c1.3,0,2.6-0.2,3.9-0.5  c-6.7-1.3-11.8-7.3-11.8-14.4c0-0.1,0-0.1,0-0.2c2,1.1,4.2,1.8,6.6,1.8c-3.9-2.6-6.5-7.1-6.5-12.2c0-2.7,0.7-5.2,2-7.4  c7.2,8.9,18,14.7,30.2,15.3c-0.2-1.1-0.4-2.2-0.4-3.3c0-8.1,6.6-14.7,14.7-14.7c4.2,0,8,1.8,10.7,4.6c3.3-0.7,6.5-1.9,9.3-3.6  c-1.1,3.4-3.4,6.3-6.4,8.1c3-0.4,5.8-1.1,8.4-2.3C85.8,31.6,83.4,34.2,80.5,36.3z" />
<path
   style="fill:#333333;fill-opacity:1;stroke:none"
   d="M 6.7185061,99.26866 C 4.4093538,98.377154 2.10611,96.139522 0.94161514,93.656333 l -0.92661988,-1.97594 0,-41.7193 0,-41.7192996 0.83352181,-1.8433439 C 1.9413315,3.9816766 4.4652708,1.6513243 7.0288199,0.69217759 l 2.0283121,-0.75888881 40.985668,0 c 40.344051,0 41.015746,0.01125396 42.907091,0.71889672 3.676174,1.3754322 6.17627,4.4256049 6.943505,8.4712234 0.504694,2.6612311 0.479634,79.0832941 -0.02683,81.8733321 -0.640169,3.526494 -2.708431,6.288159 -5.983131,7.989027 l -1.591001,0.826353 -41.896077,0.07222 C 9.6442329,99.954589 8.4516259,99.937778 6.7185061,99.26866 z M 43.325285,79.473828 C 57.709046,77.97379 69.248106,69.994786 75.786687,57.027491 78.454898,51.735903 79.867779,46.386403 80.307737,39.90974 l 0.250482,-3.687392 2.252432,-2.107041 c 2.301293,-2.152745 4.547376,-4.762817 4.306178,-5.004016 -0.07388,-0.07388 -1.007878,0.158403 -2.075556,0.516176 -1.067675,0.357774 -2.723542,0.765805 -3.679699,0.906737 l -1.738468,0.256239 2.11031,-2.081936 c 1.786852,-1.76283 3.906281,-4.963434 3.533572,-5.336141 -0.06094,-0.06094 -1.13602,0.354047 -2.389063,0.922203 -1.253039,0.568156 -3.215066,1.277646 -4.360052,1.576644 l -2.0818,0.543633 -1.185652,-1.041016 c -1.597877,-1.402956 -3.551762,-2.360798 -6.199357,-3.039082 -5.767085,-1.477458 -12.124201,1.098424 -15.464192,6.266039 -1.657013,2.563719 -2.280285,4.954859 -2.226983,8.54366 l 0.04069,2.739707 -1.474382,-0.194628 C 43.757865,38.875275 39.026433,37.506857 34.686852,35.28203 30.78531,33.281774 27.750811,31.062031 24.190998,27.604286 l -3.047607,-2.960227 -0.565322,1.412877 c -0.89467,2.236002 -1.28028,5.416195 -0.944648,7.790686 0.429904,3.041432 1.78229,5.730284 4.108963,8.169558 1.810671,1.898299 1.927553,2.109367 1.163555,2.101154 -0.467122,-0.005 -1.923232,-0.375106 -3.235799,-0.822415 -2.663582,-0.907716 -2.611174,-0.958055 -1.994773,1.916122 0.614355,2.864638 1.604674,4.75058 3.660665,6.971295 1.976433,2.134783 4.449015,3.705423 6.525177,4.144936 1.927375,0.408014 0.471047,0.927381 -2.63458,0.939561 -1.45182,0.0057 -2.63818,0.114099 -2.636355,0.240893 0.0018,0.126799 0.489606,1.078536 1.083959,2.114971 2.186641,3.813077 5.735919,6.326824 10.202658,7.225949 l 2.274321,0.457805 -2.024723,1.343935 c -4.61593,3.063879 -8.987028,4.451506 -15.075067,4.785645 l -4.065864,0.223153 2.828427,1.452478 c 7.5969,3.901222 14.911457,5.258014 23.5113,4.361166 z"
   id="path3001"
   inkscape:connector-curvature="0" /><path
   style="fill:#333333;fill-opacity:1;stroke:none"
   d="M 11.756491,99.848871 C 8.1663766,99.741649 7.2406251,99.585591 5.8786656,98.858013 4.0161168,97.863015 2.5683042,96.446661 1.3618992,94.43939 l -0.43298107,-0.720413 0,-22.082979 0,-22.082979 10.18675687,0.0046 10.186757,0.0046 0.529116,0.7599 c 2.04459,2.93638 5.18371,5.299245 7.965028,5.995402 1.715842,0.42947 0.955823,0.773564 -2.041794,0.92441 -2.902969,0.146084 -2.970105,0.151472 -3.064592,0.245959 -0.182854,0.182853 1.225937,2.681016 2.244336,3.979807 1.919101,2.447482 4.563814,4.177419 7.802935,5.103987 0.291682,0.08344 1.14223,0.275809 1.890108,0.427492 0.747878,0.151683 1.354469,0.315563 1.347982,0.364176 -0.01655,0.124035 -3.037931,2.055454 -4.215591,2.694821 -2.460012,1.335572 -4.927679,2.225525 -7.693355,2.774574 -2.079534,0.412834 -3.881829,0.593007 -7.239047,0.723677 -0.826431,0.03217 -1.552953,0.08571 -1.614492,0.118987 -0.127522,0.06895 4.171395,2.255214 5.680356,2.888806 4.03648,1.69486 7.83468,2.646278 12.153398,3.044324 1.340276,0.123531 5.302528,0.123011 6.805903,-8.93e-4 10.710744,-0.882742 19.571243,-4.911023 26.458864,-12.029088 4.440357,-4.588921 7.922953,-10.369741 9.874154,-16.390275 0.252084,-0.777818 0.472068,-1.463932 0.488854,-1.524699 0.0242,-0.08762 2.262954,-0.110486 10.816672,-0.110486 l 10.786153,0 -0.002,2.983107 c -0.006,7.443012 -0.18441,31.020414 -0.26018,34.405164 -0.06419,2.868167 -0.117835,3.91327 -0.226826,4.419417 -0.453954,2.108225 -1.49052,4.025903 -2.954761,5.466418 -0.908279,0.893567 -1.810229,1.528261 -3.336483,2.347843 l -1.256414,0.674687 -39.048668,0.03525 c -21.476741,0.01938 -40.12256,0.0032 -41.435127,-0.03603 z"
   id="path3003"
   inkscape:connector-curvature="0" /><path
   style="fill:#333333;fill-opacity:1;stroke:none"
   d="M 11.358743,99.843677 C 8.3196191,99.753097 7.5176693,99.627618 6.2549426,99.0451 5.2625581,98.587295 4.394902,97.990127 3.5195367,97.162444 2.6242324,96.315908 2.0774839,95.638447 1.4252259,94.567441 l -0.49630777,-0.814935 0,-22.099744 0,-22.099743 10.19710787,0 10.197109,0 0.245782,0.375651 c 1.932604,2.953768 5.152112,5.490267 7.997826,6.301111 0.932959,0.265833 1.149048,0.358041 1.149048,0.490314 0,0.270466 -1.270557,0.478869 -3.447145,0.565418 -2.280053,0.09066 -2.563262,0.125696 -2.563262,0.317088 0,0.249442 0.812365,1.753925 1.571603,2.910573 0.939355,1.431046 2.581635,3.067537 4.041057,4.026813 1.796687,1.180961 3.408451,1.814913 6.054601,2.381449 0.850738,0.182142 1.578851,0.36028 1.61803,0.395863 0.07021,0.06377 -1.900711,1.388657 -3.406843,2.290134 -1.022068,0.611746 -3.066977,1.591903 -4.221594,2.023476 -3.137181,1.172615 -6.2919,1.722009 -11.048544,1.924101 -0.75351,0.03201 -1.529118,0.08532 -1.723572,0.118459 l -0.353554,0.06025 0.942004,0.507474 c 5.630839,3.033433 10.210969,4.553282 15.80847,5.245809 1.595199,0.197359 7.058968,0.227435 8.616982,0.04743 1.889489,-0.218298 3.550967,-0.467876 4.861359,-0.730245 11.096613,-2.221785 20.037135,-8.394127 26.193118,-18.083155 1.839358,-2.895005 3.296501,-5.962888 4.443818,-9.356058 l 0.597726,-1.767767 10.802827,-0.02245 10.802828,-0.02245 -0.06,12.706177 c -0.07,14.824785 -0.20414,26.491445 -0.322012,28.000724 -0.100754,1.290013 -0.380388,2.31308 -0.971326,3.553627 -1.146441,2.406695 -2.73965,3.947959 -5.701835,5.515909 l -1.06066,0.561431 -39.288621,0.01034 c -21.608741,0.0057 -40.302876,-0.01989 -41.542523,-0.05684 z"
   id="path3005"
   inkscape:connector-curvature="0" /><path
   style="fill:#333333;fill-opacity:1;stroke:none"
   d="M 11.00519,99.843604 C 8.1192382,99.758289 7.3185205,99.608681 5.9368072,98.896618 4.0958141,97.947865 2.4230065,96.318777 1.2797806,94.361304 l -0.35086247,-0.60076 0,-22.103762 0,-22.103763 10.19965487,0 10.199654,0 0.60453,0.861786 c 0.783836,1.117395 2.812282,3.151731 3.901624,3.912954 1.221062,0.853266 2.404861,1.453695 3.672836,1.862882 0.981347,0.31669 1.336709,0.51155 1.1937,0.654559 -0.02019,0.02019 -0.26407,0.09593 -0.541951,0.168311 -0.454838,0.11847 -1.467397,0.204782 -4.3114,0.36751 -0.514219,0.02942 -0.987776,0.08615 -1.052347,0.126055 -0.09234,0.05707 -0.04811,0.218482 0.207179,0.756039 0.772372,1.626396 1.843651,3.151021 3.089376,4.396746 2.267551,2.267552 4.442454,3.376272 8.36926,4.266478 0.802124,0.181842 1.490462,0.358753 1.529641,0.393138 0.06507,0.05711 -1.772837,1.306543 -3.234005,2.198518 -1.547422,0.944631 -4.008899,2.048589 -5.82818,2.613906 -2.712738,0.842947 -4.878081,1.161638 -9.968003,1.467072 -0.89916,0.05396 -1.646359,0.109625 -1.660441,0.123707 -0.04307,0.04307 3.319808,1.772279 4.390633,2.257683 3.843249,1.742144 7.335485,2.776838 11.3457,3.361552 2.788897,0.406638 8.173808,0.386285 11.31417,-0.04276 5.06147,-0.691517 9.209066,-1.938057 13.394743,-4.025726 3.929677,-1.959985 6.815027,-4.04775 10.009575,-7.242672 3.496399,-3.496806 5.955233,-6.933762 8.128831,-11.362473 0.974882,-1.986324 1.461642,-3.167362 2.258592,-5.480077 l 0.548247,-1.590991 10.807995,-0.02245 10.807998,-0.02245 -0.0605,13.36909 c -0.0687,15.18163 -0.19433,25.88181 -0.321654,27.386996 -0.105624,1.248622 -0.395794,2.29476 -0.972024,3.504442 -1.138132,2.389252 -2.620016,3.833727 -5.657641,5.514808 l -1.016466,0.562532 -39.597979,0.0074 c -21.778889,0.0041 -40.532687,-0.02022 -41.675106,-0.05399 l 0,-4e-6 z"
   id="path3007"
   inkscape:connector-curvature="0" /><path
   style="fill:#333333;fill-opacity:1;stroke:none"
   d="M 10.651636,99.837943 C 8.2342074,99.75691 7.3812138,99.598982 6.1524895,99.004944 5.0696355,98.481429 4.3406685,97.961354 3.3754237,97.023668 2.4805814,96.154376 2.1128654,95.697245 1.4221999,94.595492 l -0.49328177,-0.786886 0,-22.127793 0,-22.127794 10.19854687,0 10.198548,0 0.551881,0.759593 c 1.049389,1.444348 2.959186,3.322776 4.269052,4.198931 1.087561,0.727457 2.008566,1.181566 3.374462,1.663802 1.611262,0.568864 1.586534,0.748233 -0.134203,0.97351 -0.363084,0.04754 -1.455647,0.129807 -2.427919,0.182827 -1.995898,0.108842 -2.165514,0.135831 -2.165514,0.34458 0,0.196569 0.706256,1.563154 1.211409,2.34404 1.525539,2.358242 3.739,4.367092 5.990588,5.43682 1.109186,0.526973 2.527985,0.992357 4.332682,1.421173 0.875045,0.20792 1.622103,0.405368 1.66013,0.438774 0.115649,0.101594 -2.674659,1.925146 -4.221497,2.758876 -3.958908,2.133814 -7.704338,3.106775 -13.215953,3.433143 -0.899351,0.05325 -1.993157,0.124124 -2.430679,0.157486 l -0.795495,0.06066 0.751301,0.410306 c 5.300757,2.894888 10.055553,4.516437 15.423766,5.260036 1.668465,0.231113 8.17069,0.232945 9.987883,0.0028 6.47971,-0.820596 11.594922,-2.489145 16.661204,-5.434774 4.702093,-2.733882 9.151224,-6.95215 12.654858,-11.998204 1.426312,-2.054219 3.434949,-5.824841 4.376693,-8.21594 0.354385,-0.899789 1.008444,-2.698558 1.486443,-4.087961 0.03013,-0.08758 2.274439,-0.110486 10.824162,-0.110486 l 10.786153,0 0,6.960582 c 0,9.306286 -0.15812,28.021647 -0.26539,31.488349 -0.05701,1.84219 -0.131243,2.993192 -0.219384,3.401817 -0.450471,2.088455 -1.444743,3.927858 -2.915021,5.392824 -0.915094,0.911787 -1.89928,1.608724 -3.540855,2.507405 l -1.151762,0.630381 -39.772317,-0.01489 c -21.874774,-0.0082 -40.667249,-0.04488 -41.761055,-0.08155 z"
   id="path3009"
   inkscape:connector-curvature="0" /></svg>